<svg width="312" height="240" fill="none" version="1.1" viewBox="0 0 312 240" xmlns="http://www.w3.org/2000/svg">
 <path d="m0 0h312v240h-312z" fill="#00a0d2"/>
 <path d="m103.26 66.552q0.36458 1.6042 0.98437 2.5338 0.61978 0.92968 1.6042 1.3854 0.98437 0.4375 2.5338 0.4375 2.1328 0 3.263-1.112 1.1484-1.112 1.1484-3.2448 0-1.3672-0.47395-2.2969-0.47396-0.92968-1.5495-1.75-1.0755-0.82031-3.2812-1.914-2.1328-1.0573-3.3724-2.0599-1.2396-1.0208-1.8594-2.2057-0.60156-1.1849-0.60156-2.5885 0-2.0416 0.94791-3.5364 0.96614-1.513 2.8073-2.3333 1.8594-0.8203 4.2474-0.8203 1.3854 0 2.6979 0.14583 1.3307 0.14583 3.3177 0.65624v4.9218h-1.8047q-0.41926-1.6042-1.0573-2.4974-0.63801-0.89322-1.4948-1.2396-0.85676-0.36458-2.2239-0.36458-1.1849 0-2.1328 0.4375-0.92968 0.4375-1.4766 1.3307-0.54687 0.87499-0.54687 2.0963 0 1.2943 0.45573 2.1875 0.47395 0.89322 1.4583 1.6588 0.98436 0.76562 2.9166 1.7135 2.3333 1.1667 3.6093 2.1693 1.2943 1.0026 2.0052 2.2969 0.72916 1.276 0.72916 2.9896 0 1.914-0.60156 3.2448-0.60155 1.3125-1.6771 2.151-1.0573 0.82031-2.5521 1.2031-1.4766 0.36458-3.2448 0.36458-2.862 0-6.5989-0.96614v-4.9947zm28.765-7.9478-4.776 13.708h-2.5338l-4.375-13.526q-0.41927-1.3125-0.71093-1.8411-0.27344-0.54687-0.60156-0.80208-0.30989-0.27344-1.0208-0.45572v-0.89322h7.2004v0.89322q-1.0573 0.21875-1.4401 0.58333-0.36458 0.34635-0.36458 1.0573 0 0.49218 0.10938 1.0391 0.10937 0.52864 0.32812 1.2396l2.862 9.2968 4.6849-14.109h2.5703l3.9739 14.109 3.2083-8.914q0.25521-0.6927 0.41927-1.3125 0.16406-0.63802 0.16406-1.1849 0-0.76562-0.41927-1.1849-0.40103-0.41927-1.3854-0.61979v-0.89322h6.3619v0.89322q-0.51041 0.1276-0.76562 0.27344-0.2552 0.1276-0.51041 0.40104-0.23698 0.25521-0.54687 0.8203-0.29166 0.54687-0.74739 1.7135l-5.2682 13.417h-2.4609zm21.346-10.956v3.5364h-3.3541v-3.5364zm-5.2135 23.679q0.71093-0.21875 1.0026-0.38281 0.30989-0.16406 0.51041-0.45572 0.21875-0.29166 0.32813-0.89322 0.1276-0.60156 0.1276-1.8776v-7.9478q0-1.1667-0.0365-1.8776-0.0365-0.71093-0.25521-1.1302-0.21874-0.4375-0.67447-0.63802-0.43749-0.21875-1.2578-0.36458v-0.96614l4.2474-0.16406h1.112v13.034q0 1.5677 0.14583 2.1875 0.14583 0.60156 0.54687 0.92968 0.41927 0.30989 1.349 0.54687v0.89322h-7.1458zm15.312 0.34635v3.8463q0 1.1849 0.0729 1.7682 0.0911 0.58333 0.29166 0.91145 0.21875 0.34635 0.60156 0.5651 0.40104 0.21875 1.276 0.40104v0.89322h-7.4374v-0.89322q0.65624-0.18229 1.0573-0.38281 0.41927-0.18229 0.63801-0.5651 0.21875-0.36458 0.29167-1.0026 0.0729-0.63802 0.0729-1.6953v-15.64q0-1.3125-0.0365-1.8594-0.0365-0.5651-0.14584-0.92968-0.10937-0.36458-0.32812-0.60156-0.20052-0.23698-0.5651-0.40104-0.34635-0.16406-1.1666-0.32812v-0.96614l4.2838-0.16406h1.112l-0.23697 2.9713 0.27343 0.07292q1.1302-1.1484 1.7864-1.6588 0.65625-0.52864 1.349-0.87499 0.71093-0.34635 1.349-0.49218 0.65624-0.14583 1.3854-0.14583 3.0078 0 4.6119 2.2604 1.6224 2.2422 1.6224 6.5807 0 3.0078-0.91145 5.0677-0.91145 2.0416-2.6614 3.0807-1.7318 1.0208-4.138 1.0208-1.349 0-2.4427-0.23698-1.0937-0.21875-2.0052-0.60156zm0-6.0156q0 1.75 0.21875 2.6979t0.76562 1.5495q0.5651 0.58333 1.3125 0.87499 0.76562 0.29166 2.0052 0.29166 2.2057 0 3.3177-1.8229 1.112-1.8411 1.112-5.414 0-7.1458-4.1744-7.1458-1.0208 0-1.7682 0.32812-0.72916 0.30989-1.4583 1.0208-0.72916 0.71093-1.039 1.3854-0.29167 0.65624-0.29167 1.4219zm30.388 3.4635q-1.1667 1.2213-2.151 1.914-0.96614 0.6927-2.1328 1.0937-1.1666 0.38281-2.5703 0.38281-3.7552 0-5.6692-2.2422-1.914-2.2604-1.914-6.6536 0-2.7161 0.96614-4.7942 0.98436-2.0781 2.789-3.2083t4.1562-1.1302q1.8411 0 3.1354 0.58333 1.2942 0.58333 2.0599 1.6042 0.78385 1.0026 1.2031 2.5521 0.43749 1.5312 0.49218 4.0104h-11.484v0.32812q0 2.151 0.47395 3.6276 0.49218 1.4583 1.5859 2.2969 1.112 0.8203 2.8802 0.8203 1.4948 0 2.6797-0.54687 1.2031-0.5651 2.388-1.8229zm-3.0625-7.401q-0.10938-1.9687-0.49219-3.2083-0.38281-1.2578-1.1484-1.914-0.76562-0.67447-2.0052-0.67447-1.8776 0-3.0078 1.513-1.112 1.4948-1.3125 4.2838zm11.63-3.901 0.25521 0.05469q1.0026-1.2213 1.8594-1.914 0.85676-0.71093 1.8411-1.0937 1.0026-0.38281 2.2604-0.38281 1.0573 0 1.914 0.10937v4.1927h-2.0599q-0.43749-0.98437-0.92968-1.4219-0.49218-0.45572-1.3489-0.45572-0.65625 0-1.3125 0.38281-0.63802 0.38281-1.2396 1.112-0.60156 0.72916-0.83854 1.3672-0.21875 0.63802-0.21875 1.513v6.3802q0 1.6588 0.20052 2.2969 0.20052 0.61979 0.65625 0.91145 0.47395 0.29166 1.4036 0.45572v0.89322h-7.3463v-0.89322q0.6927-0.21875 0.98437-0.38281 0.30989-0.16406 0.52864-0.45572t0.32812-0.89322q0.10938-0.60156 0.10938-1.8776v-7.9478q0-1.1667-0.0365-1.8776-0.0365-0.71093-0.25521-1.1302-0.21875-0.4375-0.67447-0.63802-0.4375-0.21875-1.2578-0.36458v-0.94791l4.2656-0.18229h1.112z" style="fill:#000;stroke-width:.8" aria-label="Swiper"/>
 <path d="m92.599 167.09q0 4.9219-1.1667 7.9844-1.1302 3.0625-3.8646 5.1771-2.6979 2.1146-7.5834 3.6094l-1.2031-3.2084q3.2083-1.2396 4.5573-2.5156 1.349-1.2396 1.8594-3.1354 0.54688-1.8958 0.54688-5.1042v-40.979q0-3.1719-0.32813-4.3386-0.29167-1.1667-1.0208-1.7865-0.69271-0.6198-2.9167-1.2031v-1.7865h15.385v1.7865q-1.6042 0.40104-2.3333 0.80209-0.69271 0.40104-1.1302 1.0208-0.40104 0.58334-0.61979 1.7865-0.18229 1.2031-0.18229 3.7188zm15.75-8.8594q0.72917 3.2083 1.9688 5.0677 1.2396 1.8594 3.2084 2.7708 1.9688 0.87501 5.0677 0.87501 4.2656 0 6.5261-2.224 2.2969-2.224 2.2969-6.4896 0-2.7344-0.94792-4.5938-0.94792-1.8594-3.099-3.5t-6.5625-3.8281q-4.2656-2.1146-6.7448-4.1198-2.4792-2.0417-3.7188-4.4115-1.2031-2.3698-1.2031-5.1771 0-4.0834 1.8958-7.0729 1.9323-3.0261 5.6146-4.6667 3.7188-1.6406 8.4948-1.6406 2.7708 0 5.3959 0.29166 2.6615 0.29167 6.6354 1.3125v9.8438h-3.6094q-0.83854-3.2083-2.1146-4.9948t-2.9896-2.4792q-1.7136-0.72917-4.4479-0.72917-2.3698 0-4.2656 0.87501-1.8594 0.875-2.9531 2.6615-1.0938 1.75-1.0938 4.1927 0 2.5886 0.91146 4.375 0.94792 1.7865 2.9167 3.3177 1.9688 1.5312 5.8334 3.4271 4.6667 2.3333 7.2188 4.3386 2.5886 2.0052 4.0104 4.5938 1.4583 2.5521 1.4583 5.9792 0 3.8281-1.2031 6.4896-1.2031 2.625-3.3542 4.3021-2.1146 1.6406-5.1042 2.4063-2.9531 0.72917-6.4896 0.72917-5.724 0-13.198-1.9323v-9.9896zm53.156 11.922q-4.375 0-7.9844-1.4219-3.5729-1.4583-6.1615-4.4844-2.5521-3.0625-3.974-7.8021-1.3854-4.7396-1.3854-11.339 0-8.1302 2.4792-13.964 2.4792-5.8334 7.073-8.8594 4.6302-3.0625 10.719-3.0625 6.4896 0 10.901 2.8802 4.4479 2.8438 6.6719 8.4219 2.2604 5.5417 2.2604 13.526 0 8.5313-2.5521 14.401-2.5521 5.8698-7.2188 8.7865-4.6302 2.9167-10.828 2.9167zm-11.995-26.068q0 11.193 3.2448 17.026 3.2813 5.8334 9.5521 5.8334 3.974 0 6.7448-2.5156 2.7708-2.5521 4.1563-7.4375 1.3854-4.8854 1.3854-11.412 0-7.948-1.6406-13.162-1.6042-5.25-4.4115-7.6198-2.8073-2.3698-6.5261-2.3698-3.2813 0-5.6511 1.5313-2.3334 1.5313-3.9011 4.375-1.5313 2.8073-2.2604 6.8177-0.69271 4.0104-0.69271 8.9323zm70.62 5.7604q1.3125 2.1875 2.1875 3.8282 0.91146 1.6406 1.8594 3.6823h0.47396q-0.18229-2.224-0.32812-8.823-0.14584-6.6354-0.14584-11.958v-7.6563q0-2.5156-0.14583-3.6823t-0.54688-1.7865q-0.36458-0.61979-1.0573-0.98438-0.65626-0.40104-2.3334-0.875v-1.7865h13.125v1.7865q-1.6406 0.4375-2.3333 0.80209-0.65626 0.36458-1.0938 0.94792-0.40104 0.58333-0.61979 1.75-0.21875 1.1667-0.21875 3.8282v40.87h-4.5573l-20.307-34.052q-1.8958-3.1719-2.6979-4.6302-0.80208-1.4583-1.4948-2.8802h-0.6198q0.25521 2.8073 0.36459 10.172 0.10937 7.3282 0.10937 14.62v7.4375q0 2.4427 0.14584 3.5729 0.18229 1.1302 0.54687 1.7865 0.40105 0.65626 1.1302 1.0938 0.76563 0.4375 2.4427 0.875v1.7865h-13.307v-1.7865q2.2604-0.58333 3.026-1.276 0.76563-0.72917 0.98438-2.0417 0.25521-1.3125 0.25521-4.0104v-31.537q0-2.5156-0.18229-3.6458-0.1823-1.1667-0.6198-1.7865-0.40104-0.65625-1.0938-1.0208-0.69271-0.40104-2.3698-0.875v-1.7865h11.412z" style="fill:#fff;stroke-width:.8" aria-label="JSON"/>
</svg>
