<svg width="312" height="240" fill="none" version="1.1" viewBox="0 0 312 240" xmlns="http://www.w3.org/2000/svg">
 <path d="m0 0h312v240h-312z" fill="#00a0d2"/>
 <path d="m193.64 84.422q0 9.1875-3.0938 16.406-3 7.125-8.0625 12.562t-11.531 10.031q-6.375 4.5937-13.5 8.9062v21.375h-16.781v-28.594q5.25-3.1875 12.188-7.5938 7.0312-4.5 10.969-8.3438 5.0625-4.7812 7.875-10.406 2.8125-5.7188 2.8125-12.938 0-10.594-6.6562-15.75-6.6562-5.25-17.344-5.25-9.375 0-17.719 3.1875-8.25 3.0938-13.406 6.4688h-1.0312v-19.125q6.2812-2.5312 15.844-4.5 9.5625-2.0625 18.094-2.0625 19.219 0 30.281 9.8438 11.062 9.75 11.062 25.781zm-34.688 106.78h-19.125v-19.781h19.125z" style="fill:#000;stroke-width:2.224;stroke:#1e1e1e" aria-label="?"/>
 <path d="m92.599 135.55q0 4.9219-1.1667 7.9844-1.1302 3.0625-3.8646 5.1771-2.6979 2.1146-7.5834 3.6094l-1.2031-3.2083q3.2083-1.2396 4.5573-2.5156 1.349-1.2396 1.8594-3.1354 0.54688-1.8958 0.54688-5.1042v-40.979q0-3.1719-0.32813-4.3386-0.29167-1.1667-1.0208-1.7865-0.69271-0.6198-2.9167-1.2031v-1.7865h15.385v1.7865q-1.6042 0.40104-2.3333 0.80209-0.69271 0.40104-1.1302 1.0208-0.40104 0.58334-0.61979 1.7865-0.18229 1.2031-0.18229 3.7188zm15.75-8.8594q0.72917 3.2084 1.9688 5.0677 1.2396 1.8594 3.2084 2.7708 1.9688 0.875 5.0677 0.875 4.2656 0 6.5261-2.224 2.2969-2.224 2.2969-6.4896 0-2.7344-0.94792-4.5938t-3.099-3.5q-2.151-1.6406-6.5625-3.8281-4.2656-2.1146-6.7448-4.1198-2.4792-2.0417-3.7188-4.4115-1.2031-2.3698-1.2031-5.1771 0-4.0834 1.8958-7.073 1.9323-3.0261 5.6146-4.6667 3.7188-1.6406 8.4948-1.6406 2.7708 0 5.3959 0.29167 2.6615 0.29167 6.6354 1.3125v9.8438h-3.6094q-0.83854-3.2083-2.1146-4.9948t-2.9896-2.4792q-1.7136-0.72917-4.4479-0.72917-2.3698 0-4.2656 0.875-1.8594 0.875-2.9531 2.6615-1.0938 1.75-1.0938 4.1927 0 2.5886 0.91146 4.375 0.94792 1.7865 2.9167 3.3177t5.8334 3.4271q4.6667 2.3333 7.2188 4.3386 2.5886 2.0052 4.0104 4.5938 1.4583 2.5521 1.4583 5.9792 0 3.8281-1.2031 6.4896-1.2031 2.625-3.3542 4.3021-2.1146 1.6406-5.1042 2.4063-2.9531 0.72917-6.4896 0.72917-5.724 0-13.198-1.9323v-9.9896zm53.156 11.922q-4.375 0-7.9844-1.4219-3.5729-1.4583-6.1615-4.4844-2.5521-3.0625-3.974-7.8021-1.3854-4.7396-1.3854-11.339 0-8.1302 2.4792-13.964 2.4792-5.8334 7.0729-8.8594 4.6302-3.0625 10.719-3.0625 6.4896 0 10.901 2.8802 4.4479 2.8438 6.6719 8.4219 2.2604 5.5417 2.2604 13.526 0 8.5313-2.5521 14.401-2.5521 5.8698-7.2188 8.7865-4.6302 2.9167-10.828 2.9167zm-11.995-26.068q0 11.193 3.2448 17.026 3.2813 5.8334 9.5521 5.8334 3.974 0 6.7448-2.5156 2.7708-2.5521 4.1563-7.4375t1.3854-11.412q0-7.948-1.6406-13.162-1.6042-5.25-4.4115-7.6198-2.8073-2.3698-6.5261-2.3698-3.2813 0-5.6511 1.5313-2.3334 1.5313-3.9011 4.375-1.5313 2.8073-2.2604 6.8177-0.69271 4.0104-0.69271 8.9323zm70.62 5.7604q1.3125 2.1875 2.1875 3.8281 0.91146 1.6406 1.8594 3.6823h0.47396q-0.18229-2.224-0.32812-8.823-0.14584-6.6354-0.14584-11.958v-7.6563q0-2.5156-0.14583-3.6823-0.14584-1.1667-0.54688-1.7865-0.36458-0.6198-1.0573-0.98438-0.65625-0.40104-2.3333-0.875v-1.7865h13.125v1.7865q-1.6406 0.4375-2.3334 0.80209-0.65625 0.36458-1.0938 0.94792-0.40104 0.58334-0.61979 1.75-0.21876 1.1667-0.21876 3.8281v40.87h-4.5573l-20.307-34.052q-1.8958-3.1719-2.6979-4.6302-0.80209-1.4583-1.4948-2.8802h-0.61979q0.25521 2.8073 0.36458 10.172 0.10938 7.3282 0.10938 14.62v7.4375q0 2.4427 0.14583 3.5729 0.1823 1.1302 0.54688 1.7865 0.40104 0.65625 1.1302 1.0938 0.76563 0.4375 2.4427 0.87501v1.7865h-13.307v-1.7865q2.2604-0.58334 3.0261-1.276 0.76563-0.72917 0.98438-2.0417 0.25521-1.3125 0.25521-4.0104v-31.537q0-2.5156-0.1823-3.6458-0.18229-1.1667-0.61979-1.7865-0.40104-0.65625-1.0938-1.0208-0.69271-0.40104-2.3698-0.875v-1.7865h11.412z" style="fill:#fff;stroke-width:.8" aria-label="JSON"/>
</svg>
