<svg width="312" height="240" fill="none" version="1.1" viewBox="0 0 312 240" xmlns="http://www.w3.org/2000/svg">
 <path d="m0 0h312v240h-312z" fill="#00a0d2"/>
 <rect x="72.04" y="53.98" width="167.92" height="132.04" style="fill:#fff"/>
 <g transform="matrix(.79131 0 0 .81736 69.666 30.823)" style="fill:#000">
  <g style="fill:#000">
   <path d="m214.31 27.276h-210.41c-2.154 0-3.897 1.743-3.897 3.896v155.86c0 2.154 1.743 3.897 3.897 3.897h210.41c2.154 0 3.897-1.743 3.897-3.897v-155.86c0-2.153-1.743-3.896-3.897-3.896zm-206.52 35.069h35.069v70.138h-35.069zm202.62 70.138h-11.69v-70.138h11.69zm0-77.931h-15.586c-2.154 0-3.897 1.743-3.897 3.897v77.931c0 2.154 1.743 3.897 3.897 3.897h15.586v42.862h-202.62v-42.863h38.966c2.154 0 3.897-1.743 3.897-3.897v-77.931c0-2.154-1.743-3.897-3.897-3.897h-38.966v-19.482h202.62z" style="fill:#000"/>
   <circle cx="113" cy="163.66" r="7.793" style="fill:#000"/>
   <path d="m66.241 140.28h109.1c2.154 0 3.897-1.743 3.897-3.897v-77.932c0-2.153-1.743-3.896-3.896-3.896h-109.1c-2.154 0-3.897 1.743-3.897 3.897v77.931c0 2.154 1.743 3.897 3.897 3.897zm3.897-77.932h101.31v70.138h-101.31z" style="fill:#000"/>
   <rect x="66.241" y="159.76" width="11.69" height="7.793" style="fill:#000"/>
   <rect x="85.724" y="159.76" width="11.69" height="7.793" style="fill:#000"/>
   <rect x="128.59" y="159.76" width="11.69" height="7.793" style="fill:#000"/>
   <rect x="148.07" y="159.76" width="11.69" height="7.793" style="fill:#000"/>
  </g>
 </g>
</svg>
