<svg width="312" height="240" fill="none" version="1.1" viewBox="0 0 312 240" xml:space="preserve" xmlns="http://www.w3.org/2000/svg"><defs><marker id="ArrowWideRounded" style="overflow:visible" markerHeight="0.8" markerWidth="0.8" orient="auto-start-reverse" preserveAspectRatio="xMidYMid" viewBox="0 0 1 1"><path transform="rotate(180 .125 0)" d="m3-3-3 3 3 3" style="fill:none;stroke-linecap:round;stroke:context-stroke"/></marker><marker id="ArrowWideRounded-5" style="overflow:visible" markerHeight="0.8" markerWidth="0.8" orient="auto-start-reverse" preserveAspectRatio="xMidYMid" viewBox="0 0 1 1"><path transform="rotate(180 .125 0)" d="m3-3-3 3 3 3" style="fill:none;stroke-linecap:round;stroke:context-stroke"/></marker><marker id="ArrowWideRounded-51" style="overflow:visible" markerHeight="0.8" markerWidth="0.8" orient="auto-start-reverse" preserveAspectRatio="xMidYMid" viewBox="0 0 1 1"><path transform="rotate(180 .125 0)" d="m3-3-3 3 3 3" style="fill:none;stroke-linecap:round;stroke:context-stroke"/></marker><marker id="ArrowWideRounded-3" style="overflow:visible" markerHeight="0.8" markerWidth="0.8" orient="auto-start-reverse" preserveAspectRatio="xMidYMid" viewBox="0 0 1 1"><path transform="rotate(180 .125 0)" d="m3-3-3 3 3 3" style="fill:none;stroke-linecap:round;stroke:context-stroke"/></marker><marker id="ArrowWideRounded-4" style="overflow:visible" markerHeight="0.8" markerWidth="0.8" orient="auto-start-reverse" preserveAspectRatio="xMidYMid" viewBox="0 0 1 1"><path transform="rotate(180 .125 0)" d="m3-3-3 3 3 3" style="fill:none;stroke-linecap:round;stroke:context-stroke"/></marker><marker id="marker7" style="overflow:visible" markerHeight="1" markerWidth="1" orient="auto-start-reverse" preserveAspectRatio="xMidYMid" viewBox="0 0 1 1"><path transform="rotate(180 .125 0)" d="m3-3-3 3 3 3" style="fill:none;stroke-linecap:round;stroke:context-stroke"/></marker><marker id="ArrowWideRounded-54" style="overflow:visible" markerHeight="0.8" markerWidth="0.8" orient="auto-start-reverse" preserveAspectRatio="xMidYMid" viewBox="0 0 1 1"><path transform="rotate(180 .125 0)" d="m3-3-3 3 3 3" style="fill:none;stroke-linecap:round;stroke:context-stroke"/></marker><marker id="ArrowWideRounded-31" style="overflow:visible" markerHeight="0.8" markerWidth="0.8" orient="auto-start-reverse" preserveAspectRatio="xMidYMid" viewBox="0 0 1 1"><path transform="rotate(180 .125 0)" d="m3-3-3 3 3 3" style="fill:none;stroke-linecap:round;stroke:context-stroke"/></marker></defs><path d="m0 0h312v240h-312z" fill="#00a0d2"/><g transform="matrix(3.0236 0 0 3.0236 48.333 38.138)"><rect x=".51203" y=".51203" width="18.82" height="12.205" style="fill:currentColor;stroke-width:1.0239;stroke:#424242"/><rect x="2.1369" y="2.0632" width="15.57" height="9.1029" style="fill:#fff;stroke-dasharray:1.32292;stroke-width:.66146;stroke:#1e1e1e"/><circle cx="7.6206" cy="9.1726" r=".52917" style="fill:#1e1e1e"/><circle cx="9.7372" cy="9.1726" r=".52917" style="fill:#808080"/><circle cx="11.854" cy="9.1726" r=".52917" style="fill:#808080"/><path d="m3.4781 6.6146h-0.1552" style="fill:#808080;marker-end:url(#ArrowWideRounded);stroke-width:.66146;stroke:#1e1e1e"/><path d="m16.395 6.6146h0.1552" style="fill:#808080;marker-end:url(#ArrowWideRounded);stroke-width:.66146;stroke:#1e1e1e"/></g><g transform="matrix(3.0236 0 0 3.0236 126 38.138)"><rect x=".51203" y=".51203" width="18.82" height="12.205" style="stroke-width:1.0239;stroke:#424242"/><rect x="2.1369" y="2.0632" width="15.57" height="9.1029" style="fill:#fff;stroke-dasharray:1.32292;stroke-width:.66146;stroke:#1e1e1e"/><circle cx="7.6206" cy="9.1726" r=".52917"/><circle cx="9.7372" cy="9.1726" r=".52917" style="fill:#808080"/><circle cx="11.854" cy="9.1726" r=".52917" style="fill:#808080"/><path d="m3.4781 6.6146h-0.1552" style="fill:#808080;marker-end:url(#ArrowWideRounded-5);stroke-width:.66146;stroke:#1e1e1e"/><path d="m16.395 6.6146h0.1552" style="fill:#808080;marker-end:url(#ArrowWideRounded-5);stroke-width:.66146;stroke:#1e1e1e"/><rect x="1.0244" y=".99331" width="17.818" height="1.3968" ry="0" style="fill:#808080"/><rect x="1.0244" y=".99331" width="6.5962" height="1.3968" style="fill:#007cba"/></g><g transform="matrix(3.0236 0 0 3.0236 203.67 38.139)"><rect x=".51203" y=".51203" width="18.82" height="12.205" style="fill:currentColor;stroke-width:1.0239;stroke:#424242"/><rect x="2.1369" y="2.0632" width="15.57" height="9.1029" style="fill:#fff;stroke-dasharray:1.32292;stroke-width:.66146;stroke:#1e1e1e"/><path d="m3.4781 6.6146h-0.1552" style="fill:#808080;marker-end:url(#ArrowWideRounded-51);stroke-width:.66146;stroke:#1e1e1e"/><path d="m16.395 6.6146h0.1552" style="fill:#808080;marker-end:url(#ArrowWideRounded-51);stroke-width:.66146;stroke:#1e1e1e"/><text x="6.3927941" y="9.8277855" style="fill:#000000;font-family:Tahoma;font-size:3.175px;font-weight:bold;letter-spacing:.52917px;stroke-width:.66147" xml:space="preserve"><tspan x="6.3927941" y="9.8277855" style="fill:#000000;font-family:Tahoma;font-size:3.175px;font-weight:bold;letter-spacing:.52917px;stroke-width:.66147">1/3</tspan></text></g><g transform="matrix(3.0236 0 0 3.0236 49.374 100)"><rect x=".51203" y=".51203" width="18.82" height="12.205" style="fill:currentColor;stroke-width:1.0239;stroke:#424242"/><rect x="2.1369" y="2.0632" width="15.57" height="9.1029" style="fill:#fff;stroke-dasharray:1.32292;stroke-width:.66146;stroke:#1e1e1e"/><circle cx="7.6206" cy="9.1726" r=".52917" style="fill:#1e1e1e"/><path d="m7.2705 2.3699v8.4895" style="fill:none;stroke-dasharray:1.32631, 0.663156;stroke-width:.66316;stroke:#000"/><circle cx="9.7372" cy="9.1726" r=".52917" style="fill:#808080"/><path d="m12.173 2.3699v8.4895" style="fill:none;stroke-dasharray:1.32631, 0.663156;stroke-width:.66316;stroke:#000"/><circle cx="11.854" cy="9.1726" r=".52917" style="fill:#808080"/><path d="m3.4781 6.6146h-0.1552" style="fill:#808080;marker-end:url(#ArrowWideRounded-3);stroke-width:.66146;stroke:#1e1e1e"/><path d="m16.395 6.6146h0.1552" style="fill:#808080;marker-end:url(#ArrowWideRounded-3);stroke-width:.66146;stroke:#1e1e1e"/></g><g transform="matrix(3.0236 0 0 3.0236 126 100)"><rect x=".51203" y=".51203" width="18.82" height="12.205" style="fill:currentColor;stroke-width:1.0239;stroke:#424242"/><rect x="2.1369" y="2.0632" width="15.57" height="9.1029" style="fill:#fff;stroke-dasharray:1.32292;stroke-width:.66146;stroke:#1e1e1e"/><circle cx="7.6206" cy="9.1726" r=".52917" style="fill:#1e1e1e"/><circle cx="9.7372" cy="9.1726" r=".52917" style="fill:#808080"/><circle cx="11.854" cy="9.1726" r=".52917" style="fill:#808080"/><path d="m3.4781 6.6146h-0.1552" style="fill:#808080;marker-end:url(#ArrowWideRounded-4);stroke-width:.66146;stroke:#1e1e1e"/><path d="m16.395 6.6146h0.1552" style="fill:#808080;marker-end:url(#ArrowWideRounded-4);stroke-width:.66146;stroke:#1e1e1e"/><path d="m8.8248 3.289 0.64661 1.7764h-0.95215l2.153 2.8442-0.28745-1.8959h0.96894l-0.99155-2.7247z" style="fill:#1e1e1e"/></g><g transform="matrix(3.0236 0 0 3.0236 203.67 100)"><rect x=".51203" y=".51203" width="18.82" height="12.205" style="fill:currentColor;stroke-width:1.0239;stroke:#424242"/><rect x="2.1369" y="2.0632" width="15.57" height="9.1029" style="fill:#fff;stroke-dasharray:1.32292;stroke-width:.66146;stroke:#1e1e1e"/><circle cx="7.6206" cy="9.1726" r=".52917" style="fill:#1e1e1e"/><circle cx="9.7372" cy="9.1726" r=".52917" style="fill:#808080"/><circle cx="11.854" cy="9.1726" r=".52917" style="fill:#808080"/><path d="m11.143 7.0087c0.26938-0.17802 0.33594-0.52535 0.18745-0.78525 0.25008-0.23423 0.24709-0.62895 1.72e-4 -0.86091 0.21473-0.37477-0.04017-0.8639-0.48321-0.87948 0.08615-0.36714-0.18876-0.72353-0.56566-0.72353h-0.4526c-0.26019 0-0.50823 0.11348-0.68052 0.31136l-0.67612 0.77649c-0.029419 0.033789-0.044288 0.024724-0.26147 0.024724-0.14044 0-0.2543 0.11386-0.2543 0.2543v2.0026c0 0.14044 0.11385 0.2543 0.2543 0.2543 0.18685 0 0.24432-0.00807 0.33671 0.031644l0.79195 0.3404c0.11266 0.04843 0.23183 0.072976 0.35417 0.072976h0.90946c0.4199 0 0.70458-0.43162 0.53968-0.81961zm-1.4491 0.43816a0.51261 0.51261 0 0 1-0.20354-0.041975l-0.79194-0.3404c-0.09672-0.041559-0.19899-0.062641-0.30397-0.062641h-0.056231v-1.7483h0.081739c0.13009 0 0.25412-0.056738 0.34026-0.15568l0.67612-0.77649c0.099826-0.11464 0.24302-0.18039 0.39286-0.18039h0.45259c0.2639 0 0.26652 0.41324-0.0054 0.41324h-0.32761a0.12715 0.12715 0 0 0-0.095896 0.043653l-0.048437 0.055627a0.12715 0.12715 0 0 0 0.095887 0.21065h0.92637c0.26302 0 0.26801 0.41324-0.0054 0.41324h-0.21259c-0.07022 0-0.12715 0.056932-0.12715 0.12715v0.055628c0 0.070218 0.05693 0.12715 0.12715 0.12715h0.32696c0.26331 0 0.26761 0.41323-0.0054 0.41323h-0.32158c-0.07022 0-0.12715 0.056923-0.12715 0.12715v0.055628c0 0.070227 0.05693 0.12715 0.12715 0.12715h0.21797c0.26248 0 0.26844 0.41324-0.0054 0.41324h-0.21254c-0.07022 0-0.12715 0.056923-0.12715 0.12715v0.055628c0 0.070227 0.05693 0.12715 0.12715 0.12715 0.2634 0 0.26712 0.41324-0.0054 0.41324z" style="fill:#1e1e1e;stroke-width:.10716"/></g><g transform="matrix(3.0236 0 0 3.0236 50.415 161.86)"><rect x=".51203" y=".51203" width="18.82" height="12.205" style="fill:currentColor;stroke-width:1.0239;stroke:#424242"/><rect x="2.1369" y="2.0632" width="15.57" height="9.1029" style="fill:#fff;stroke-dasharray:1.32292;stroke-width:.66146;stroke:#1e1e1e"/><circle cx="7.6206" cy="9.1726" r=".52917" style="fill:#1e1e1e"/><circle cx="9.7372" cy="9.1726" r=".52917" style="fill:#808080"/><circle cx="11.854" cy="9.1726" r=".52917" style="fill:#808080"/><path d="m3.4781 6.6146h-0.1552" style="fill:#808080;marker-end:url(#ArrowWideRounded-54);stroke-width:.66146;stroke:#1e1e1e"/><path d="m16.395 6.6146h0.1552" style="fill:#808080;marker-end:url(#ArrowWideRounded-54);stroke-width:.66146;stroke:#1e1e1e"/><path d="m11.682 6.0946q0 0.54239-0.27001 0.87162-0.26764 0.32686-0.74846 0.32686-0.3008 0-0.55424-0.18948-0.25343-0.19185-0.39791-0.51871-0.18238 0.36239-0.41923 0.53529-0.23448 0.1729-0.55897 0.1729-0.43107 0-0.68688-0.32449-0.25343-0.32449-0.25343-0.82425 0-0.55897 0.27712-0.87873 0.27949-0.31975 0.74135-0.31975 0.3008 0 0.55424 0.19185 0.25343 0.18948 0.39791 0.51634 0.17764-0.35528 0.41923-0.53055 0.24159-0.17764 0.55898-0.17764 0.43107 0 0.68451 0.32449 0.2558 0.32449 0.2558 0.82425zm-2.0819-0.15632q-0.14211-0.27712-0.34344-0.41449-0.19896-0.13974-0.41213-0.13974-0.31028 0-0.48081 0.19422-0.16817 0.19422-0.16817 0.56608 0 0.33633 0.14685 0.52345 0.14922 0.18475 0.39791 0.18475 0.20133 0 0.3387-0.087636 0.13738-0.090004 0.2937-0.36475 0.059213-0.10422 0.11606-0.21791 0.059213-0.11369 0.11132-0.24396zm1.6793 0.15632q0-0.34107-0.14922-0.52345-0.14922-0.18475-0.39554-0.18475-0.20843 0-0.34344 0.092373t-0.29133 0.36002q-0.07816 0.13027-0.12553 0.23212-0.045002 0.099479-0.099479 0.22975 0.13738 0.27475 0.3387 0.41449 0.20369 0.13974 0.41686 0.13974 0.31028 0 0.47844-0.19185 0.17053-0.19422 0.17053-0.56845z" style="fill:#1e1e1e;stroke-width:.10716" aria-label="∞"/><path d="m8.5971 9.0992a3.3335 3.2476 0 0 1-2.1427-3.6156 3.3335 3.2476 0 0 1 3.2828-2.6836 3.3335 3.2476 0 0 1 3.2828 2.6836 3.3335 3.2476 0 0 1-2.1427 3.6156" style="fill:none;marker-end:url(#marker7);stroke-width:.46837;stroke:#1e1e1e"/></g><g transform="matrix(3.0236 0 0 3.0236 127.04 161.86)"><rect x=".51203" y=".51203" width="18.82" height="12.205" style="fill:currentColor;stroke-width:1.0239;stroke:#424242"/><rect x="2.1369" y="2.0632" width="15.57" height="9.1029" style="fill:#fff;stroke-dasharray:1.32292;stroke-width:.66146;stroke:#1e1e1e"/><circle cx="7.6206" cy="9.1726" r=".52917" style="fill:#1e1e1e"/><circle cx="9.7372" cy="9.1726" r=".52917" style="fill:#808080"/><circle cx="11.854" cy="9.1726" r=".52917" style="fill:#808080"/><path d="m3.4781 6.6146h-0.1552" style="fill:#808080;marker-end:url(#ArrowWideRounded-31);stroke-width:.66146;stroke:#1e1e1e"/><path d="m16.395 6.6146h0.1552" style="fill:#808080;marker-end:url(#ArrowWideRounded-31);stroke-width:.66146;stroke:#1e1e1e"/><rect x="7.1057" y="4.2385" width="2.9766" height="2.9766" style="fill:none;stroke-opacity:.37795;stroke-width:.96706;stroke:#1e1e1e"/><circle cx="10.645" cy="6.1031" r="1.8647" style="fill:none;stroke-opacity:.6437;stroke-width:1.0001;stroke:#1e1e1e"/></g><g transform="matrix(3.0236 0 0 3.0236 203.67 161.86)"><rect x=".51203" y=".51203" width="18.82" height="12.205" style="fill:currentColor;stroke-width:1.0239;stroke:#424242"/><rect x="2.1369" y="2.0632" width="15.57" height="9.1029" style="fill:#fff;stroke-dasharray:1.32292;stroke-width:.66146;stroke:#1e1e1e"/><circle cx="7.6206" cy="9.1726" r=".52917" style="fill:#1e1e1e"/><circle cx="9.7372" cy="9.1726" r=".52917" style="fill:#808080"/><circle cx="11.854" cy="9.1726" r=".52917" style="fill:#808080"/><g transform="translate(.17746)"><rect x="8.0835" y="4.0457" width="3.3073" height="3.3073" style="fill:none;stroke-width:.73555;stroke:#1e1e1e"/><path d="m13.345 4.6278 2.6529-0.64726v3.4098l-2.6529-0.7551z" style="fill:none;stroke-width:.66613;stroke:#1e1e1e"/><path d="m6.1444 4.6332-2.6529-0.64726v3.4098l2.6529-0.7551z" style="fill:none;stroke-width:.66613;stroke:#1e1e1e"/></g></g></svg>
