<svg width="60" height="40" version="1.1" viewBox="0 0 19.844 13.229" xmlns="http://www.w3.org/2000/svg">
 <rect x=".51203" y=".51203" width="18.82" height="12.205" style="fill:currentColor;stroke-width:1.0239;stroke:#424242"/>
 <rect x="2.1369" y="2.0632" width="15.57" height="9.1029" style="fill:#fff;stroke-dasharray:1.32291668;stroke-width:.66146;stroke:#1e1e1e"/>
 <circle cx="7.6206" cy="9.1726" r=".52917" style="fill:#1e1e1e"/>
 <circle cx="9.7372" cy="9.1726" r=".52917" style="fill:#808080"/>
 <circle cx="11.854" cy="9.1726" r=".52917" style="fill:#808080"/>
 <path d="m11.143 7.0087c0.26938-0.17802 0.33594-0.52535 0.18745-0.78525 0.25008-0.23423 0.24709-0.62895 1.72e-4 -0.86091 0.21473-0.37477-0.04017-0.8639-0.48321-0.87948 0.086151-0.36714-0.18876-0.72353-0.56566-0.72353h-0.4526c-0.26019 0-0.50823 0.11348-0.68052 0.31136l-0.67612 0.77649c-0.029419 0.033789-0.044288 0.024724-0.26147 0.024724-0.14044 0-0.2543 0.11386-0.2543 0.2543v2.0026c0 0.14044 0.11385 0.2543 0.2543 0.2543 0.18685 0 0.24432-0.00807 0.33671 0.031644l0.79195 0.3404c0.11266 0.04843 0.23183 0.072976 0.35417 0.072976h0.90946c0.4199 0 0.70458-0.43162 0.53968-0.81961zm-1.4491 0.43816a0.51261 0.51261 0 0 1-0.20354-0.041975l-0.79194-0.3404c-0.09672-0.041559-0.19899-0.062641-0.30397-0.062641h-0.056231v-1.7483h0.081739c0.13009 0 0.25412-0.056738 0.34026-0.15568l0.67612-0.77649c0.099826-0.11464 0.24302-0.18039 0.39286-0.18039h0.45259c0.2639 0 0.26652 0.41324-0.0054 0.41324h-0.32761a0.12715 0.12715 0 0 0-0.095896 0.043653l-0.048437 0.055627a0.12715 0.12715 0 0 0 0.095887 0.21065h0.92637c0.26302 0 0.26801 0.41324-0.0054 0.41324h-0.21259c-0.07022 0-0.12715 0.056932-0.12715 0.12715v0.055628c0 0.070218 0.05693 0.12715 0.12715 0.12715h0.32696c0.26331 0 0.26761 0.41323-0.0054 0.41323h-0.32158c-0.07022 0-0.12715 0.056923-0.12715 0.12715v0.055628c0 0.070227 0.05693 0.12715 0.12715 0.12715h0.21797c0.26248 0 0.26844 0.41324-0.0054 0.41324h-0.21254c-0.07022 0-0.12715 0.056923-0.12715 0.12715v0.055628c0 0.070227 0.05693 0.12715 0.12715 0.12715 0.2634 0 0.26712 0.41324-0.0054 0.41324z" style="fill:#1e1e1e;stroke-width:.10716"/>
</svg>
