<svg width="60" height="40" version="1.1" viewBox="0 0 19.844 13.229" xmlns="http://www.w3.org/2000/svg">
 <defs>
  <marker id="marker7" style="overflow:visible" markerHeight="1" markerWidth="1" orient="auto-start-reverse" preserveAspectRatio="xMidYMid" viewBox="0 0 1 1">
   <path transform="rotate(180 .125 0)" d="m3-3-3 3 3 3" style="fill:none;stroke-linecap:round;stroke:context-stroke"/>
  </marker>
  <marker id="ArrowWideRounded" style="overflow:visible" markerHeight="0.8" markerWidth="0.8" orient="auto-start-reverse" preserveAspectRatio="xMidYMid" viewBox="0 0 1 1">
   <path transform="rotate(180 .125 0)" d="m3-3-3 3 3 3" style="fill:none;stroke-linecap:round;stroke:context-stroke"/>
  </marker>
 </defs>
 <rect x=".51203" y=".51203" width="18.82" height="12.205" style="fill:currentColor;stroke-width:1.0239;stroke:#424242"/>
 <rect x="2.1369" y="2.0632" width="15.57" height="9.1029" style="fill:#fff;stroke-dasharray:1.32291668;stroke-width:.66146;stroke:#1e1e1e"/>
 <circle cx="7.6206" cy="9.1726" r=".52917" style="fill:#1e1e1e"/>
 <circle cx="9.7372" cy="9.1726" r=".52917" style="fill:#808080"/>
 <circle cx="11.854" cy="9.1726" r=".52917" style="fill:#808080"/>
 <path d="m3.4781 6.6146h-0.1552" style="fill:#808080;marker-end:url(#ArrowWideRounded);stroke-width:.66146;stroke:#1e1e1e"/>
 <path d="m16.395 6.6146h0.1552" style="fill:#808080;marker-end:url(#ArrowWideRounded);stroke-width:.66146;stroke:#1e1e1e"/>
 <path d="m11.682 6.0946q0 0.54239-0.27001 0.87162-0.26764 0.32686-0.74846 0.32686-0.3008 0-0.55424-0.18948-0.25343-0.19185-0.39791-0.51871-0.18238 0.36239-0.41923 0.53529-0.23448 0.1729-0.55897 0.1729-0.43107 0-0.68688-0.32449-0.25343-0.32449-0.25343-0.82425 0-0.55897 0.27712-0.87873 0.27949-0.31975 0.74135-0.31975 0.3008 0 0.55424 0.19185 0.25343 0.18948 0.39791 0.51634 0.17764-0.35528 0.41923-0.53055 0.24159-0.17764 0.55898-0.17764 0.43107 0 0.68451 0.32449 0.2558 0.32449 0.2558 0.82425zm-2.0819-0.15632q-0.14211-0.27712-0.34344-0.41449-0.19896-0.13974-0.41213-0.13974-0.31028 0-0.48081 0.19422-0.16817 0.19422-0.16817 0.56608 0 0.33633 0.14685 0.52345 0.14922 0.18475 0.39791 0.18475 0.20133 0 0.3387-0.087636 0.13738-0.090004 0.2937-0.36475 0.059213-0.10422 0.11606-0.21791 0.059213-0.11369 0.11132-0.24396zm1.6793 0.15632q0-0.34107-0.14922-0.52345-0.14922-0.18475-0.39554-0.18475-0.20843 0-0.34344 0.092373-0.13501 0.092373-0.29133 0.36002-0.07816 0.13027-0.12553 0.23212-0.045002 0.099479-0.099479 0.22975 0.13738 0.27475 0.3387 0.41449 0.20369 0.13974 0.41686 0.13974 0.31028 0 0.47844-0.19185 0.17053-0.19422 0.17053-0.56845z" style="fill:#1e1e1e;stroke-width:.10716" aria-label="∞"/>
 <path d="m8.5971 9.0992a3.3335 3.2476 0 0 1-2.1427-3.6156 3.3335 3.2476 0 0 1 3.2828-2.6836 3.3335 3.2476 0 0 1 3.2828 2.6836 3.3335 3.2476 0 0 1-2.1427 3.6156" style="fill:none;marker-end:url(#marker7);stroke-width:.46837;stroke:#1e1e1e"/>
</svg>
